<?xml version="1.0" encoding="utf-8"?>
<!-- Generator: Adobe Illustrator 21.0.2, SVG Export Plug-In . SVG Version: 6.00 Build 0)  -->
<svg version="1.1" id="Layer_1" xmlns="http://www.w3.org/2000/svg" xmlns:xlink="http://www.w3.org/1999/xlink" x="0px" y="0px"
	 viewBox="0 0 35 35" style="enable-background:new 0 0 35 35;" xml:space="preserve">
<style type="text/css">
	.st0{fill:none;stroke:#FFFFFF;stroke-miterlimit:10;}
	.st1{fill:#FFFFFF;}
</style>
<title>Fix_Icon</title>
<path class="st0" d="M3.7,5.6h27.7c1.4,0,2.6,1.1,2.6,2.6v23.4c0,1.4-1.1,2.6-2.6,2.6H3.7c-1.4,0-2.6-1.1-2.6-2.6V8.1
	C1.1,6.7,2.2,5.6,3.7,5.6z"/>
<line class="st0" x1="1.2" y1="11.8" x2="34" y2="11.8"/>
<circle class="st1" cx="4.4" cy="9.1" r="0.9"/>
<circle class="st1" cx="7.2" cy="9.1" r="0.9"/>
<circle class="st1" cx="10" cy="9.1" r="0.9"/>
<path class="st0" d="M24.8,28.3l-8.6-8.5c-0.2-0.2-0.4-0.3-0.6-0.4c0.4-1.9-0.8-3.9-2.7-4.3c-1.5-0.3-3,0.3-3.8,1.5h2.7l1.2,2
	l-1.2,2H9.1c0.9,1.3,2.5,1.9,4,1.4c0.1,0.2,0.2,0.3,0.3,0.5l8.6,8.6c0.8,0.7,2,0.7,2.7-0.1C25.4,30.2,25.4,29.1,24.8,28.3L24.8,28.3
	z"/>
<circle class="st1" cx="23.2" cy="29.6" r="0.7"/>
</svg>
