<?xml version="1.0" encoding="utf-8"?>
<!-- Generator: Adobe Illustrator 21.0.2, SVG Export Plug-In . SVG Version: 6.00 Build 0)  -->
<svg version="1.1" id="Layer_1" xmlns="http://www.w3.org/2000/svg" xmlns:xlink="http://www.w3.org/1999/xlink" x="0px" y="0px"
	 viewBox="0 0 35 35" style="enable-background:new 0 0 35 35;" xml:space="preserve">
<style type="text/css">
	.st0{fill:none;stroke:#FFFFFF;stroke-linejoin:round;}
	.st1{fill:none;stroke:#FFFFFF;stroke-linecap:round;stroke-linejoin:round;}
</style>
<title>integration_icon</title>
<path class="st0" d="M13.3,18.7c-0.9,0-1.7-0.8-1.7-1.7c0-0.9,0.8-1.7,1.7-1.7c0.4,0,0.8,0.2,1.1,0.4v-3.9H4.3c-0.5,0-1,0.4-1,0.9
	c0,0,0,0.1,0,0.1v10.1h11.1v-4.5C14,18.6,13.6,18.7,13.3,18.7z"/>
<path class="st1" d="M15.3,26.7c-0.3,0-0.6,0.1-0.9,0.2v-4.1H3.3v10.1c0,0.5,0.4,1,0.9,1c0,0,0.1,0,0.1,0h10.1v-4.1
	c0.3,0.2,0.6,0.2,0.9,0.2c0.9,0,1.7-0.7,1.7-1.7c0,0,0,0,0,0C16.9,27.4,16.1,26.7,15.3,26.7z"/>
<path class="st1" d="M29.2,8.7c0.3-0.1,0.5-0.1,0.8,0l-0.7-2.6c-0.1-0.5-0.7-0.8-1.2-0.7l-3.3,0.9c0.3-0.4,0.5-1,0.3-1.5
	c-0.2-0.9-1.2-1.4-2.1-1.2c-0.9,0.2-1.4,1.2-1.2,2.1c0.2,0.5,0.6,1,1.1,1.2l-4.6,1.2l1,3.7c-0.4-0.1-0.7-0.2-1.1-0.1
	c-0.9,0.2-1.4,1.2-1.2,2.1c0.2,0.9,1.2,1.4,2.1,1.2c0.4-0.1,0.7-0.3,0.9-0.6l1.2,4.3l4-1.1C25,18,25,18.4,25.1,18.7
	c0.2,0.9,1.2,1.4,2.1,1.2c0.9-0.2,1.4-1.2,1.2-2.1l0,0c-0.1-0.4-0.3-0.7-0.6-0.9l4-1.1l-1.1-4.2C30.5,11.8,30.2,12,30,12
	c-0.9,0.3-1.8-0.2-2.1-1.1c0,0,0-0.1,0-0.1C27.7,9.9,28.3,9,29.2,8.7z"/>
<path class="st0" d="M21.3,22.9c0.2,0.3,0.4,0.7,0.4,1.1c0,0.9-0.8,1.7-1.7,1.7c-0.9,0-1.7-0.8-1.7-1.7c0-0.4,0.1-0.8,0.4-1.1h-4.2
	v4c0.3-0.1,0.5-0.2,0.8-0.2c0.9,0,1.7,0.8,1.7,1.7s-0.8,1.7-1.7,1.7c-0.3,0-0.6-0.1-0.8-0.2v4h10.1c0.5,0,1-0.4,1-0.9
	c0,0,0-0.1,0-0.1v-10L21.3,22.9z"/>
</svg>
