<svg id="Layer_1" data-name="Layer 1" xmlns="http://www.w3.org/2000/svg" viewBox="0 0 29.5 31.38">
    <defs>
        <style>.cls-1,.cls-2{fill:none;stroke:#fff;stroke-linejoin:round;}.cls-2{stroke-linecap:round;}</style>
    </defs>
    <title>integration_icon</title>
    <path class="cls-1"
          d="M20.75,25a1.7,1.7,0,0,1,0-3.4,2.1,2.1,0,0,1,1.1.4v-3.9H11.75a.94.94,0,0,0-1,1v10.1h11.1v-4.5A2,2,0,0,1,20.75,25Z"
          transform="translate(-10.25 -9.31)"/>
    <path class="cls-2"
          d="M22.75,33a2.92,2.92,0,0,0-.9.2v-4.1H10.75v10.1a.94.94,0,0,0,1,1h10.1v-4.1a1.49,1.49,0,0,0,.9.2,1.69,1.69,0,0,0,1.7-1.7A1.74,1.74,0,0,0,22.75,33Z"
          transform="translate(-10.25 -9.31)"/>
    <path class="cls-2"
          d="M36.65,15a1.1,1.1,0,0,1,.8,0l-.7-2.6a1,1,0,0,0-1.2-.7l-3.3.9a1.63,1.63,0,0,0,.3-1.5,1.71,1.71,0,0,0-3.3.9,1.89,1.89,0,0,0,1.1,1.2l-4.6,1.2,1,3.7a2,2,0,0,0-1.1-.1,1.71,1.71,0,1,0,.9,3.3,1.46,1.46,0,0,0,.9-.6l1.2,4.3,4-1.1a2,2,0,0,0-.1,1.1,1.71,1.71,0,1,0,3.3-.9,1.46,1.46,0,0,0-.6-.9l4-1.1-1.1-4.2a1.61,1.61,0,0,1-.7.4,1.66,1.66,0,0,1-2.1-1.2A2,2,0,0,1,36.65,15Z"
          transform="translate(-10.25 -9.31)"/>
    <path class="cls-1"
          d="M28.75,29.19a2.1,2.1,0,0,1,.4,1.1,1.7,1.7,0,0,1-3.4,0,1.5,1.5,0,0,1,.4-1.1h-4.2v4a2.35,2.35,0,0,1,.8-.2,1.7,1.7,0,0,1,0,3.4,1.88,1.88,0,0,1-.8-.2v4H32a.94.94,0,0,0,1-1v-10Z"
          transform="translate(-10.25 -9.31)"/>
</svg>